<?xml version="1.0" encoding="UTF-8"?>
<svg id="Layer_1" data-name="Layer 1" xmlns="http://www.w3.org/2000/svg" viewBox="0 0 1914.32 950">
  <defs>
    <style>
      .cls-1 {
        fill: #fff;
      }
    </style>
  </defs>
  <polygon class="cls-1" points="1008.44 650.69 1008.16 650.97 960.76 603.56 907.21 550.02 791.76 434.56 792.04 434.29 907.21 549.46 907.21 549.74 1008.44 650.69"/>
  <path class="cls-1" d="M1906.68,475c0,3.63,0,6.97-.28,10.32,0,1.67-.28,3.35-.28,5.02-.28,7.53-.56,14.78-1.11,22.03v1.67c-.28,3.9-.84,8.09-1.12,11.99-.28,4.18-.84,8.09-1.39,12.27-23.15,165.09-136.09,301.18-287.79,358.07-6.13,2.23-12.27,4.46-18.68,6.69-19.24,6.14-39.04,10.88-59.4,14.5-3.63.84-7.25,1.39-10.6,1.67-1.67.28-3.63.84-5.3.84-2.23.56-4.46.56-6.97.84-1.11,0-1.95,0-3.07-.28h-.28c-17.29,2.23-34.86,3.35-52.71,3.35s-36.25-1.11-53.82-3.07c-1.11,0-1.95,0-3.07-.28-6.97-.84-13.66-1.95-20.64-3.35-4.46-.84-8.92-1.67-13.39-2.79-78.92-17.29-151.71-56.89-209.43-114.62l-66.65-66.37-82.55-82.54.28-.28-101.23-100.95v-.56l-115.17-114.89-.28.28-98.44-98.16-.56-.84-57.45-57.45c-32.63-33.19-74.18-55.77-119.08-65.54q-.28,0-.56-.28c-16.45-3.35-33.74-5.02-51.31-5.02-21.47,0-42.39,2.51-62.19,7.25-3.07.56-5.86,1.39-8.64,2.23-2.79.56-5.3,1.39-7.81,2.23-.28,0-.56,0-.84.28-5.58,1.67-10.88,3.35-15.9,5.58-8.92,3.35-17.57,6.97-25.93,11.71-5.02,2.23-9.76,4.74-14.5,7.81-4.74,2.51-9.48,5.58-13.94,8.92-3.63,1.95-6.97,4.46-10.32,7.25-5.86,4.18-11.43,8.92-17.01,13.94-4.18,3.35-8.37,7.25-12.27,11.43-.84.56-1.67,1.39-2.51,2.51-3.9,3.9-7.81,8.09-11.43,12.55-4.18,4.74-8.09,9.48-11.99,14.78-2.51,3.07-4.74,6.41-6.69,9.76-5.86,8.37-10.88,17.01-15.62,25.94-3.35,6.13-6.14,12.27-8.92,18.68-1.95,4.46-3.63,8.64-5.3,13.11-2.51,7.25-4.74,14.22-6.69,21.47-1.67,5.58-2.79,10.88-3.9,16.45-.28.84-.56,1.39-.56,2.23-.56,2.23-.84,4.74-1.11,6.97-1.39,6.97-2.23,13.66-2.79,20.92-.84,7.81-1.11,15.62-1.11,23.71v.56c0,7.81.28,15.34,1.11,22.87,0,1.39,0,2.79.28,3.9.56,5.58,1.39,11.16,2.23,16.73.56,3.07,1.11,6.14,1.95,9.2q-.28.28,0,.56c.84,5.58,2.23,11.15,3.9,16.73,1.95,7.25,4.18,14.78,6.97,21.75,1.95,5.3,3.9,10.32,6.13,15.34,1.11,2.79,2.51,5.58,3.9,8.37.28.84.84,1.67,1.39,2.51,2.23,5.02,4.74,9.76,7.53,14.5.28.28.56.56.56.84,3.07,5.58,6.42,10.6,10.04,15.9,1.39,2.23,3.07,4.46,4.46,6.41,3.35,4.74,6.97,9.48,10.88,14.22l.28.28c4.74,5.86,9.76,11.43,15.34,16.73,5.3,5.58,10.6,10.6,16.45,15.62,4.74,3.9,9.48,7.81,14.5,11.71,3.35,2.51,6.69,5.02,10.32,7.25,3.9,2.51,7.81,5.02,11.71,7.53,6.41,3.9,13.11,7.53,20.08,10.88,6.69,3.63,13.66,6.69,20.92,9.2,6.97,3.07,14.22,5.3,21.75,7.53,6.97,2.23,14.22,3.9,21.47,5.3.28,0,.84.28,1.12.28,1.95.56,3.62,1.11,5.3,1.95-1.4-1.12-3.35-1.95-5.3-2.23,17.01,3.63,34.58,5.3,52.71,5.3,16.73,0,32.63-1.39,48.25-4.46h.28c.28,0,.56-.28,1.12-.28.56-.28,1.39-.56,2.23-.84,45.18-9.76,86.45-32.07,119.36-64.98l129.95-129.95c6.13-6.13,16.17-6.13,22.31,0l105.97,105.97c6.13,6.14,6.13,16.17,0,22.31l-129.4,129.39c-54.1,54.1-121.03,92.03-193.82,110.99-10.6,2.79-21.19,5.02-32.07,6.97-5.86,1.11-11.43,1.95-17.29,2.79-.84.28-1.95.28-2.79.28-17.85,2.23-35.69,3.35-54.1,3.35s-36.81-1.11-54.38-3.35c1.67,0,3.07-.56,4.46-1.39-1.95.84-3.9,1.11-5.86,1.11.56,0,.84,0,1.4.28h-3.35c-.56,0-1.11-.28-1.67-.28-1.11,0-2.51-.28-3.63-.56-1.67,0-3.62-.56-5.3-.84-6.97-.84-13.94-2.23-20.92-3.63-43.51-8.64-84.78-23.71-122.98-44.34-5.86-3.07-11.71-6.41-17.29-9.76-5.58-3.35-11.16-6.69-16.73-10.6-32.07-20.92-61.35-45.74-86.73-74.18-5.02-5.3-9.48-10.6-13.94-15.9-4.46-5.3-8.92-11.16-13.39-17.01-4.46-5.86-8.64-11.71-12.83-17.85-3.63-5.86-7.53-11.71-11.15-17.85-3.9-6.14-7.53-12.55-10.88-18.96-3.35-6.14-6.41-12.27-9.76-18.41-3.35-6.97-6.69-14.22-9.48-21.75-2.79-6.41-5.3-12.83-7.81-19.52-2.51-6.97-5.02-13.66-6.97-20.92-2.23-6.97-4.18-13.94-6.14-20.92v-.56c-1.95-6.69-3.35-13.39-4.74-20.08-.28-.84-.28-1.39-.56-2.51-1.39-6.97-2.51-13.94-3.63-21.19-3.63-22.03-5.3-44.9-5.3-68.04,0-14.22.56-28.45,1.95-42.39.56-5.02,1.11-9.76,1.67-14.78,1.67-13.11,3.9-26.21,6.69-39.04.84-4.18,1.95-8.64,3.07-12.83,1.95-8.37,4.46-16.73,6.97-24.82,1.95-6.41,3.9-12.55,6.41-18.68.28-1.39.84-2.51,1.11-3.9,1.95-5.3,4.18-10.6,6.42-15.62,5.86-14.5,12.55-28.72,20.08-42.39,3.35-6.42,6.97-12.55,10.88-18.96,2.79-4.46,5.58-9.2,8.64-13.66,17.57-26.49,37.65-51.03,60.24-73.06,4.18-4.46,8.64-8.64,13.11-12.55,5.3-5.02,10.88-9.76,16.45-14.22,5.3-4.74,11.16-9.2,17.01-13.39,5.58-4.18,11.43-8.37,17.57-12.55,5.58-3.9,11.16-7.53,17.01-10.87,12.83-8.09,26.21-15.34,40.16-22.03,6.41-2.79,12.83-5.86,19.24-8.37,14.22-6.13,28.72-11.43,43.5-15.9,6.13-1.95,12.55-3.63,18.96-5.3,7.25-1.95,14.5-3.63,21.75-5.02,7.25-1.67,14.78-2.79,22.31-3.9,1.67-.56,3.62-.56,5.3-.84,2.79-.56,5.58-.84,8.37-1.11,17.85-2.23,36.25-3.35,54.66-3.35s36.53,1.12,54.38,3.35c.84,0,1.67.28,2.51.28,1.39.28,2.51.28,3.9.56,4.46.56,8.92,1.39,13.11,2.23,5.58.84,10.88,1.95,16.45,3.35,78.64,17.01,151.43,56.89,209.43,114.89l71.11,71.11,125.77,125.49,54.1,54.1,73.9,74.18,142.78,142.78,54.38,54.1c32.91,33.19,74.74,55.49,119.63,64.98.56,0,1.12.28,1.39.56.28,0,.84.28,1.12.28.28-.28.28,0,.56,0,15.62,3.07,32.07,4.74,48.8,4.74,18.13,0,35.98-1.95,52.99-5.3-1.95.28-3.63,1.11-5.3,2.23,1.67-.84,3.35-1.39,5.3-1.95,1.67-.28,3.07-.56,4.74-1.11,6.14-1.12,11.99-2.79,17.85-4.46,7.25-2.23,14.5-4.74,21.75-7.53,6.41-2.51,12.55-5.02,18.68-8.09,35.14-17.01,65.81-41.27,90.63-71.11,3.63-4.74,7.53-9.48,10.88-14.22,9.48-13.39,18.13-27.61,25.1-42.67,6.42-13.67,11.99-28.17,15.9-42.95,1.95-7.53,3.9-15.06,5.02-22.87,3.07-15.34,4.46-31.51,4.46-47.69s-1.4-32.07-4.46-47.41c-1.11-7.81-2.79-15.34-5.02-22.87-1.95-7.25-4.18-13.94-6.69-20.64,0-.28-.28-.84-.56-1.39-1.67-5.02-3.63-9.76-6.13-14.78-.28-1.39-.84-2.51-1.67-3.9-.28-1.39-1.12-2.79-1.67-4.18-5.86-11.99-12.27-23.43-19.8-34.3-1.39-2.51-3.35-5.02-5.3-7.53-6.41-9.2-13.39-17.57-21.19-25.66-1.95-2.23-3.9-4.46-6.13-6.41-9.2-9.48-18.96-17.85-29.28-25.38-3.35-2.79-6.69-5.02-10.32-7.25-8.37-5.86-16.73-11.16-25.93-15.62-2.51-1.39-5.02-2.79-7.81-3.9-3.63-1.95-7.53-3.63-11.71-5.3-3.07-1.39-6.42-2.79-9.76-3.9-6.13-2.51-12.55-4.46-18.96-6.41-5.86-1.67-11.71-3.35-17.85-4.46-1.67-.56-3.07-.84-4.74-1.12-17.01-3.35-34.86-5.3-52.99-5.3s-35.14,1.67-51.87,5.3h-.28c-.56,0-1.11.28-1.67.28-44.34,10.04-84.78,32.35-117.68,65.26l-56.33,56.33-73.06,73.34c-.84.84-1.67,1.39-2.51,1.95-1.39.84-2.51,1.67-4.18,1.95-1.39.28-2.79.56-4.18.56-1.11.28-2.23,0-3.35-.28-.84-.28-1.67-.56-2.51-.84-1.12-.28-1.95-.84-2.79-1.39-.56-.28-1.11-.56-1.39-1.11-.28-.28-.84-.56-1.11-1.12l-95.65-95.65-.28.28-10.32-10.32c-6.14-6.13-6.14-16.17,0-22.31l58.84-58.56,70.55-70.55c6.69-6.97,13.39-13.39,20.64-19.52,6.41-5.58,13.11-11.15,19.8-16.17,8.37-6.69,16.73-12.55,25.38-18.4,7.81-5.3,15.9-10.04,23.98-14.78,8.09-4.74,16.45-9.2,24.82-13.11,6.41-3.07,12.83-6.14,19.52-8.92,4.46-1.95,9.2-3.9,13.67-5.3,7.25-3.07,14.78-5.86,22.31-8.09,3.9-1.12,7.81-2.51,11.99-3.63,3.9-1.39,8.09-2.51,11.99-3.35,10.32-2.79,20.92-5.02,31.51-6.97,4.46-.84,8.64-1.67,13.11-2.23,1.4-.28,2.79-.28,4.18-.56.84,0,1.67-.28,2.51-.28,17.85-2.23,35.97-3.35,54.38-3.35s36.81,1.12,54.66,3.35h.84c.84,0,1.39.28,2.23.28,3.63.56,6.97.84,10.6,1.67,7.53.84,15.06,2.23,22.31,3.9,7.25,1.39,14.5,3.07,21.75,5.02,6.41,1.67,12.83,3.35,18.96,5.3,5.86,1.67,11.43,3.63,17.29,5.58,8.92,3.07,17.57,6.41,26.21,10.32,3.35,1.11,6.41,2.79,9.48,4.18,3.35,1.11,6.69,2.79,9.76,4.18,6.97,3.35,13.66,6.69,20.36,10.6,6.69,3.63,13.39,7.25,19.8,11.43,5.86,3.35,11.43,6.97,17.01,10.87,17.29,11.71,33.74,24.54,49.08,38.76,4.18,3.35,8.37,7.25,12.27,11.16,13.11,12.55,25.1,25.93,36.53,39.88,5.58,6.97,11.16,13.94,15.9,21.19,25.93,35.97,46.57,75.85,61.07,118.8,1.95,6.41,4.18,12.83,5.86,19.24,3.9,13.39,6.97,26.49,9.48,40.16,1.11,5.58,1.95,11.15,2.79,16.73-.84-5.58-1.95-11.43-3.07-17.01,5.02,27.05,7.81,54.94,7.81,83.66Z"/>
  <path class="cls-1" d="M1906.41,485.32c0,9.2-.56,18.13-1.39,27.05.56-7.25.84-14.5,1.11-22.03,0-1.67.28-3.35.28-5.02Z"/>
  <path class="cls-1" d="M1906.68,475v7.81c0,.84-.28,1.67-.28,2.51.28-3.35.28-6.69.28-10.32Z"/>
  <path class="cls-1" d="M1135.89,408.63c-.56,0-.84-.56-1.39-.84l-95.65-95.65.28-.28,95.65,95.65c.28.56.84.84,1.11,1.12Z"/>
  <polygon class="cls-1" points="1157.92 150.4 1088.48 219.83 1157.64 150.4 1157.92 150.4"/>
  <path class="cls-1" d="M1497.58,907.23c.43,2.57,1.91,4.65,3.4,6.66-1.55-1.95-2.83-4.13-3.4-6.66Z"/>
  <path class="cls-1" d="M1905.01,514.04c-.28,2.79-.28,5.86-.56,8.64-.28,1.12-.28,2.23-.56,3.35.28-3.9.84-8.09,1.12-11.99Z"/>
  <path class="cls-1" d="M1906.96,475.28c0,2.51,0,5.3-.28,7.53,0,.84-.28,1.67-.28,2.51.28-3.35.28-6.69.28-10.32,0-28.72-2.79-56.61-7.81-83.66,1.12,5.58,2.23,11.43,3.07,17.01,3.35,21.75,5.02,44.06,5.02,66.93Z"/>
  <path class="cls-1" d="M1340.02,42.47c-4.18,1.11-8.09,2.51-11.99,3.63,2.79-1.12,5.58-1.95,8.37-2.79,1.11-.28,2.23-.56,3.63-.84Z"/>
</svg>